<svg width="1614" height="1615" xmlns="http://www.w3.org/2000/svg" xmlns:xlink="http://www.w3.org/1999/xlink" xml:space="preserve" overflow="hidden"><defs><clipPath id="clip0"><rect x="1393" y="430" width="1614" height="1615"/></clipPath></defs><g clip-path="url(#clip0)" transform="translate(-1393 -430)"><rect x="1393" y="430" width="1614" height="1615" fill="#262626"/><path d="M1891 1492.5C1891 1431.47 1940.47 1382 2001.5 1382 2062.53 1382 2112 1431.47 2112 1492.5 2112 1553.53 2062.53 1603 2001.5 1603 1940.47 1603 1891 1553.53 1891 1492.5Z" stroke="#FFFFFF" stroke-width="27.5" stroke-miterlimit="8" fill="none" fill-rule="evenodd"/><path d="M2276 1386.5C2276 1325.47 2325.47 1276 2386.5 1276 2447.53 1276 2497 1325.47 2497 1386.5 2497 1447.53 2447.53 1497 2386.5 1497 2325.47 1497 2276 1447.53 2276 1386.5Z" stroke="#FFFFFF" stroke-width="27.5" stroke-miterlimit="8" fill="none" fill-rule="evenodd"/><path d="M2114 963 2114 1494.27" stroke="#FFFFFF" stroke-width="27.5" stroke-miterlimit="8" fill="none" fill-rule="evenodd"/><path d="M2497 871 2497 1398.36" stroke="#FFFFFF" stroke-width="27.5" stroke-miterlimit="8" fill="none" fill-rule="evenodd"/><path d="M0 0 383.509 95.8776" stroke="#FFFFFF" stroke-width="27.5" stroke-miterlimit="8" fill="none" fill-rule="evenodd" transform="matrix(1 0 0 -1 2114 1058.88)"/><path d="M0 0 393.908 98.6976" stroke="#FFFFFF" stroke-width="27.5" stroke-miterlimit="8" fill="none" fill-rule="evenodd" transform="matrix(1 0 0 -1 2112 971.698)"/></g></svg>