<svg width="867" height="970" xmlns="http://www.w3.org/2000/svg" xmlns:xlink="http://www.w3.org/1999/xlink" xml:space="preserve" overflow="hidden"><defs><clipPath id="clip0"><rect x="1519" y="926" width="867" height="970"/></clipPath></defs><g clip-path="url(#clip0)" transform="translate(-1519 -926)"><path d="M1882.11 1034.72C2118.14 995.841 2340.99 1155.66 2379.87 1391.69 2418.74 1627.72 2258.92 1850.57 2022.89 1889.45 1786.86 1928.33 1564.01 1768.5 1525.13 1532.47 1502.45 1394.74 1547.53 1254.52 1646.23 1155.82L1708.62 1218.2C1573.93 1352.89 1573.93 1571.27 1708.62 1705.96 1843.31 1840.65 2061.69 1840.65 2196.38 1705.96 2331.07 1571.27 2331.07 1352.89 2196.38 1218.2 2117.78 1139.61 2006.12 1103.71 1896.45 1121.77Z" fill="#FFFFFF" fill-rule="evenodd"/><path d="M1957 1238 1792 1082 1957 926Z" fill="#FFFFFF" fill-rule="evenodd"/></g></svg>